<svg id="visual" viewBox="0 0 960 540" width="960" height="540" xmlns="http://www.w3.org/2000/svg" xmlns:xlink="http://www.w3.org/1999/xlink" version="1.1"><rect x="0" y="0" width="960" height="540" fill="#000000"></rect><defs><linearGradient id="grad1_0" x1="43.8%" y1="100%" x2="100%" y2="0%"><stop offset="14.444444444444446%" stop-color="#000000" stop-opacity="1"></stop><stop offset="85.55555555555554%" stop-color="#000000" stop-opacity="1"></stop></linearGradient></defs><defs><linearGradient id="grad2_0" x1="0%" y1="100%" x2="56.3%" y2="0%"><stop offset="14.444444444444446%" stop-color="#000000" stop-opacity="1"></stop><stop offset="85.55555555555554%" stop-color="#000000" stop-opacity="1"></stop></linearGradient></defs><g transform="translate(960, 540)"><path d="M-461 0C-492.4 -111.8 -523.9 -223.7 -467.7 -270C-411.4 -316.3 -267.6 -297.2 -175 -303.1C-82.4 -309 -41.2 -340 0 -371L0 0Z" fill="#715DF2"></path></g><g transform="translate(0, 0)"><path d="M540 0C486.9 84.6 433.7 169.1 364.6 210.5C295.5 251.9 210.4 250.1 147 254.6C83.6 259.2 41.8 270.1 0 281L0 0Z" fill="#715DF2"></path></g></svg>